<?xml version="1.0" encoding="UTF-8" standalone="no"?>
<svg
   width="1280"
   height="359"
   overflow="hidden"
   version="1.1"
   id="svg4"
   sodipodi:docname="adwienlogo.svg"
   inkscape:version="1.4.2 (f4327f4, 2025-05-13)"
   xmlns:inkscape="http://www.inkscape.org/namespaces/inkscape"
   xmlns:sodipodi="http://sodipodi.sourceforge.net/DTD/sodipodi-0.dtd"
   xmlns="http://www.w3.org/2000/svg"
   xmlns:svg="http://www.w3.org/2000/svg">
  <sodipodi:namedview
     id="namedview4"
     pagecolor="#ffffff"
     bordercolor="#000000"
     borderopacity="0.25"
     inkscape:showpageshadow="2"
     inkscape:pageopacity="0.0"
     inkscape:pagecheckerboard="0"
     inkscape:deskcolor="#d1d1d1"
     inkscape:zoom="1.440625"
     inkscape:cx="613.96963"
     inkscape:cy="282.1692"
     inkscape:window-width="3840"
     inkscape:window-height="2054"
     inkscape:window-x="-11"
     inkscape:window-y="-11"
     inkscape:window-maximized="1"
     inkscape:current-layer="svg4" />
  <defs
     id="defs1">
    <clipPath
       id="clip0">
      <rect
         x="0"
         y="0"
         width="1280"
         height="359"
         id="rect1" />
    </clipPath>
  </defs>
  <g
     clip-path="url(#clip0)"
     id="g4">
    <path
       d="M1763.49-1761.69C1762.9-1759.36 1762.1-1757.46 1761.06-1756.07 1760.06-1754.68 1758.52-1753.58 1756.48-1752.89 1754.44-1752.14 1751.8-1751.65 1748.62-1751.4 1745.38-1751.15 1741.3-1751.05 1736.38-1751.05 1730.85-1751.05 1726.38-1751.15 1723.04-1751.4 1719.66-1751.65 1717.02-1752.14 1715.08-1752.89 1713.14-1753.58 1711.74-1754.68 1710.85-1756.07 1710-1757.46 1709.31-1759.36 1708.81-1761.69L1678.61-1881.31 1678.31-1881.31 1649.75-1761.69C1649.25-1759.45 1648.6-1757.62 1647.71-1756.22 1646.86-1754.83 1645.47-1753.73 1643.58-1752.94 1641.69-1752.14 1639.1-1751.65 1635.86-1751.4 1632.58-1751.15 1628.3-1751.05 1622.98-1751.05 1617.31-1751.05 1612.83-1751.15 1609.5-1751.4 1606.16-1751.65 1603.47-1752.14 1601.53-1752.89 1599.59-1753.58 1598.2-1754.68 1597.3-1756.07 1596.46-1757.46 1595.71-1759.36 1595.16-1761.69L1552.32-1926.34C1551.43-1929.87 1550.98-1932.61 1550.88-1934.6 1550.78-1936.59 1551.33-1938.14 1552.52-1939.18 1553.77-1940.28 1555.76-1940.92 1558.49-1941.17 1561.28-1941.42 1565.11-1941.52 1570.04-1941.52 1574.62-1941.52 1578.2-1941.47 1580.88-1941.32 1583.57-1941.17 1585.56-1940.82 1586.9-1940.28 1588.25-1939.73 1589.19-1938.98 1589.69-1937.94 1590.14-1936.94 1590.54-1935.5 1590.84-1933.66L1623.97-1789.11 1624.12-1789.11 1658.51-1932.61C1658.9-1934.45 1659.4-1935.99 1660.05-1937.14 1660.64-1938.33 1661.74-1939.23 1663.23-1939.83 1664.73-1940.47 1666.82-1940.92 1669.45-1941.17 1672.04-1941.42 1675.57-1941.52 1679.95-1941.52 1684.63-1941.52 1688.31-1941.42 1691.1-1941.22 1693.88-1941.02 1696.02-1940.62 1697.52-1939.97 1699.01-1939.33 1700.1-1938.43 1700.8-1937.29 1701.5-1936.15 1701.99-1934.55 1702.39-1932.61L1738.02-1789.11 1738.32-1789.11 1771.16-1933.21C1771.45-1934.75 1771.85-1936.09 1772.3-1937.24 1772.8-1938.33 1773.74-1939.23 1775.09-1939.83 1776.48-1940.47 1778.42-1940.92 1780.96-1941.17 1783.5-1941.42 1787.03-1941.52 1791.61-1941.52 1795.94-1941.52 1799.27-1941.42 1801.66-1941.17 1804.05-1940.92 1805.74-1940.28 1806.83-1939.18 1807.88-1938.14 1808.37-1936.54 1808.23-1934.45 1808.07-1932.36 1807.58-1929.53 1806.68-1925.89ZM1887.6-1757.17C1887.6-1756.22 1887.3-1755.33 1886.65-1754.53 1886.01-1753.78 1884.96-1753.14 1883.52-1752.64 1882.08-1752.19 1880.08-1751.79 1877.7-1751.5 1875.26-1751.2 1872.12-1751.05 1868.34-1751.05 1864.66-1751.05 1861.57-1751.2 1859.09-1751.5 1856.6-1751.79 1854.61-1752.19 1853.17-1752.64 1851.72-1753.14 1850.68-1753.78 1850.03-1754.53 1849.39-1755.33 1849.09-1756.22 1849.09-1757.17L1849.09-1935.4C1849.09-1936.34 1849.39-1937.24 1850.03-1938.04 1850.68-1938.78 1851.72-1939.43 1853.27-1939.93 1854.76-1940.42 1856.7-1940.77 1859.14-1941.07 1861.57-1941.37 1864.66-1941.52 1868.34-1941.52 1872.12-1941.52 1875.26-1941.37 1877.7-1941.07 1880.08-1940.77 1882.08-1940.42 1883.52-1939.93 1884.96-1939.43 1886.01-1938.78 1886.65-1938.04 1887.3-1937.24 1887.6-1936.34 1887.6-1935.4ZM2053.85-1767.02C2053.85-1764.18 2053.75-1761.85 2053.5-1759.9 2053.25-1758.01 2052.9-1756.47 2052.41-1755.33 2051.91-1754.13 2051.31-1753.29 2050.56-1752.74 2049.87-1752.19 2049.02-1751.94 2048.18-1751.94L1953.54-1751.94C1950.35-1751.94 1947.66-1752.89 1945.47-1754.78 1943.29-1756.67 1942.19-1759.76 1942.19-1764.03L1942.19-1928.53C1942.19-1932.81 1943.29-1935.9 1945.47-1937.79 1947.66-1939.68 1950.35-1940.62 1953.54-1940.62L2047.73-1940.62C2048.57-1940.62 2049.37-1940.37 2050.07-1939.88 2050.71-1939.38 2051.31-1938.53 2051.81-1937.34 2052.25-1936.09 2052.65-1934.55 2052.9-1932.66 2053.15-1930.72 2053.25-1928.33 2053.25-1925.4 2053.25-1922.66 2053.15-1920.37 2052.9-1918.43 2052.65-1916.54 2052.31-1915 2051.81-1913.85 2051.31-1912.66 2050.71-1911.81 2050.07-1911.27 2049.37-1910.72 2048.57-1910.47 2047.73-1910.47L1980.41-1910.47 1980.41-1864.49 2037.13-1864.49C2038.02-1864.49 2038.82-1864.24 2039.52-1863.7 2040.26-1863.15 2040.86-1862.35 2041.36-1861.21 2041.86-1860.11 2042.2-1858.62 2042.45-1856.68 2042.7-1854.79 2042.8-1852.5 2042.8-1849.82 2042.8-1846.98 2042.7-1844.64 2042.45-1842.8 2042.2-1840.96 2041.86-1839.47 2041.36-1838.37 2040.86-1837.23 2040.26-1836.43 2039.52-1835.98 2038.82-1835.49 2038.02-1835.24 2037.13-1835.24L1980.41-1835.24 1980.41-1782.1 2048.18-1782.1C2049.07-1782.1 2049.87-1781.85 2050.56-1781.3 2051.31-1780.75 2051.91-1779.91 2052.41-1778.71 2052.9-1777.57 2053.25-1776.02 2053.5-1774.13 2053.75-1772.2 2053.85-1769.86 2053.85-1767.02ZM2256.87-1765.38C2256.87-1763.14 2256.47-1761.15 2255.72-1759.36 2254.93-1757.62 2253.88-1756.17 2252.54-1754.98 2251.24-1753.83 2249.7-1752.99 2247.91-1752.44 2246.07-1751.89 2244.28-1751.65 2242.44-1751.65L2226.07-1751.65C2222.64-1751.65 2219.7-1751.99 2217.21-1752.64 2214.77-1753.33 2212.48-1754.58 2210.39-1756.37 2208.25-1758.16 2206.26-1760.6 2204.32-1763.68 2202.38-1766.72 2200.19-1770.7 2197.76-1775.58L2150.93-1863.8C2148.2-1869.07 2145.46-1874.74 2142.62-1880.81 2139.79-1886.88 2137.3-1892.81 2135.06-1898.53L2134.76-1898.53C2135.16-1891.51 2135.46-1884.54 2135.66-1877.58 2135.86-1870.66 2135.96-1863.45 2135.96-1856.08L2135.96-1757.32C2135.96-1756.37 2135.71-1755.47 2135.16-1754.68 2134.61-1753.93 2133.67-1753.29 2132.37-1752.74 2131.08-1752.19 2129.29-1751.79 2127.05-1751.5 2124.81-1751.2 2121.92-1751.05 2118.44-1751.05 2115.01-1751.05 2112.17-1751.2 2109.93-1751.5 2107.69-1751.79 2105.95-1752.19 2104.71-1752.74 2103.42-1753.24 2102.52-1753.93 2102.07-1754.68 2101.57-1755.47 2101.33-1756.37 2101.33-1757.32L2101.33-1926.89C2101.33-1931.47 2102.67-1934.9 2105.35-1937.19 2107.99-1939.48 2111.28-1940.62 2115.21-1940.62L2135.76-1940.62C2139.44-1940.62 2142.57-1940.32 2145.11-1939.68 2147.65-1939.03 2149.89-1937.98 2151.88-1936.54 2153.87-1935.1 2155.76-1933.06 2157.5-1930.47 2159.24-1927.94 2161.03-1924.7 2162.88-1920.92L2199.55-1851.9C2201.68-1847.73 2203.77-1843.6 2205.87-1839.56 2207.96-1835.53 2210-1831.51 2211.89-1827.47 2213.83-1823.44 2215.72-1819.46 2217.56-1815.58 2219.45-1811.65 2221.24-1807.77 2222.98-1803.89L2223.13-1803.89C2222.83-1810.71 2222.58-1817.82 2222.43-1825.19 2222.29-1832.6 2222.23-1839.66 2222.23-1846.38L2222.23-1934.95C2222.23-1935.9 2222.53-1936.79 2223.13-1937.59 2223.68-1938.33 2224.67-1939.03 2226.02-1939.63 2227.41-1940.22 2229.2-1940.62 2231.44-1940.87 2233.68-1941.12 2236.56-1941.22 2240.05-1941.22 2243.38-1941.22 2246.17-1941.12 2248.41-1940.87 2250.65-1940.62 2252.34-1940.22 2253.58-1939.63 2254.78-1939.03 2255.67-1938.33 2256.12-1937.59 2256.62-1936.79 2256.87-1935.95 2256.87-1934.95Z"
       fill="#633588"
       fill-rule="evenodd"
       transform="matrix(1 0 0 1.00188 -976.769 2029.29)"
       id="path2" />
    <path
       d="M980.351-1933.38C980.351-1933.38 986.872-2001.6 1069.98-2015.01 1130.46-2024.77 1328.83-2033.07 1428.45-2014.05 1428.45-2014.05 1511.43-1994.96 1517.58-1935.18 1523.74-1875.39 1525.43-1775.51 1510.04-1736.07 1494.64-1696.62 1458.57-1676.72 1380.98-1671.79 1303.4-1666.86 1127.94-1660.29 1054.7-1684.29 1003.9-1700.93 980.505-1726.51 977.735-1789.38 974.962-1852.25 978.888-1923.67 980.351-1933.38Z"
       fill="#633588"
       fill-rule="evenodd"
       transform="matrix(1 0 0 1.00188 -976.769 2029.29)"
       id="path3" />
    <path
       d="M1241.3-1761.77C1242.51-1758.09 1243.3-1755.15 1243.61-1753 1243.93-1750.84 1243.51-1749.21 1242.4-1748.11 1241.25-1747.06 1239.25-1746.38 1236.36-1746.12 1233.53-1745.85 1229.53-1745.75 1224.55-1745.75 1219.29-1745.75 1215.2-1745.8 1212.31-1745.96 1209.36-1746.12 1207.16-1746.43 1205.58-1746.9 1204.06-1747.38 1203.01-1748.01 1202.38-1748.85 1201.75-1749.63 1201.22-1750.74 1200.86-1752.05L1187.78-1792.08 1112.66-1792.08 1100.11-1753.15C1099.69-1751.68 1099.16-1750.47 1098.48-1749.53 1097.85-1748.53 1096.75-1747.8 1095.28-1747.22 1093.81-1746.64 1091.71-1746.27 1088.97-1746.06 1086.24-1745.85 1082.67-1745.75 1078.26-1745.75 1073.53-1745.75 1069.85-1745.9 1067.18-1746.22 1064.5-1746.53 1062.66-1747.27 1061.66-1748.43 1060.61-1749.63 1060.24-1751.31 1060.56-1753.47 1060.87-1755.62 1061.66-1758.46 1062.87-1762.08L1124.22-1938.83C1124.8-1940.57 1125.53-1941.99 1126.37-1943.04 1127.16-1944.14 1128.47-1944.93 1130.26-1945.5 1132.1-1946.08 1134.57-1946.45 1137.77-1946.61 1140.92-1946.77 1145.13-1946.82 1150.38-1946.82 1156.42-1946.82 1161.25-1946.77 1164.82-1946.61 1168.45-1946.45 1171.23-1946.08 1173.23-1945.5 1175.22-1944.93 1176.64-1944.09 1177.53-1942.98 1178.37-1941.83 1179.16-1940.31 1179.74-1938.36ZM1149.91-1908 1149.75-1908 1122.01-1823.27 1177.9-1823.27ZM1438.57-1849.23C1438.57-1830.95 1436.21-1815.35 1431.43-1802.32 1426.65-1789.34 1419.82-1778.79 1410.89-1770.54 1401.96-1762.34 1391.09-1756.31 1378.32-1752.47 1365.56-1748.64 1350.33-1746.69 1332.68-1746.69L1285.14-1746.69C1281.73-1746.69 1278.89-1747.69 1276.58-1749.69 1274.27-1751.68 1273.11-1754.94 1273.11-1759.46L1273.11-1933.11C1273.11-1937.63 1274.27-1940.88 1276.58-1942.88 1278.89-1944.88 1281.73-1945.87 1285.14-1945.87L1336.2-1945.87C1353.95-1945.87 1369.03-1943.77 1381.37-1939.62 1393.77-1935.47 1404.17-1929.33 1412.62-1921.19 1421.08-1912.99 1427.54-1902.91 1431.95-1890.93 1436.37-1878.9 1438.57-1865.03 1438.57-1849.23ZM1396.65-1847.8C1396.65-1857.26 1395.55-1865.98 1393.35-1874.12 1391.14-1882.21 1387.62-1889.2 1382.74-1895.13 1377.85-1901.07 1371.6-1905.74 1363.98-1909.05 1356.32-1912.36 1346.33-1914.04 1333.89-1914.04L1313.45-1914.04 1313.45-1778.84 1334.52-1778.84C1345.6-1778.84 1354.95-1780.26 1362.51-1783.14 1370.08-1785.98 1376.43-1790.34 1381.53-1796.12 1386.57-1801.9 1390.35-1809.1 1392.87-1817.71 1395.4-1826.32 1396.65-1836.36 1396.65-1847.8Z"
       fill="#FFFFFF"
       fill-rule="evenodd"
       transform="matrix(1 0 0 1.00188 -976.769 2029.29)"
       id="path4" />
  </g>
</svg>
